<svg xmlns="http://www.w3.org/2000/svg" viewBox="0 0 240 160" width="100%" height="100%">
  <ellipse cx="120" cy="140" rx="90" ry="8" fill="#e2e8f0"/>

  <path d="M 60 80 C 60 30, 180 30, 180 80" fill="#3b82f6"/>

  <path d="M 68 80 C 68 40, 172 40, 172 80 Z" fill="#e0f2fe"/>
  
  <rect x="115" y="44" width="8" height="36" fill="#3b82f6"/>

  <rect x="30" y="75" width="180" height="50" rx="20" fill="#2563eb"/>

  <ellipse cx="200" cy="95" rx="8" ry="12" fill="#fef08a"/>
  
  <ellipse cx="40" cy="95" rx="6" ry="10" fill="#ef4444"/>

  <circle cx="75" cy="125" r="22" fill="#1e293b"/>
  <circle cx="75" cy="125" r="10" fill="#94a3b8"/>
  <circle cx="75" cy="125" r="4" fill="#cbd5e1"/>

  <circle cx="165" cy="125" r="22" fill="#1e293b"/>
  <circle cx="165" cy="125" r="10" fill="#94a3b8"/>
  <circle cx="165" cy="125" r="4" fill="#cbd5e1"/>

  <rect x="125" y="85" width="15" height="4" rx="2" fill="#1d4ed8"/>
</svg>
